<svg width="167" height="186" viewBox="0 0 167 186" fill="none" xmlns="http://www.w3.org/2000/svg">
<path d="M160.345 79.4518L160.302 82.0646C160.296 82.9359 160.214 83.8034 160.173 84.6728C160.102 86.4137 159.895 88.1416 159.731 89.8733C159.298 93.3225 158.78 96.7641 158.006 100.149L157.734 101.422L157.423 102.685L156.792 105.209L156.081 107.71L155.724 108.961L155.329 110.198L154.535 112.672L153.669 115.12C153.389 115.939 153.082 116.748 152.764 117.553L151.823 119.971C149.21 126.374 146.16 132.59 142.694 138.574C139.204 144.546 135.215 150.311 130.357 155.365C127.932 157.907 125.29 160.232 122.462 162.315C119.604 164.373 116.562 166.164 113.376 167.665C110.18 169.121 106.868 170.31 103.476 171.22C100.078 172.077 96.6215 172.678 93.1346 173.021C86.1575 173.646 79.126 173.205 72.2816 171.713C65.4639 170.175 58.8909 167.704 52.7482 164.37C51.9156 163.967 51.1443 163.454 50.3454 162.991L47.9688 161.564L45.6768 160.006C44.9157 159.482 44.1369 158.983 43.4175 158.402C41.9598 157.268 40.4569 156.187 39.0866 154.946L36.9878 153.135L34.9901 151.215C32.3409 148.638 29.8575 145.895 27.5549 143.004C26.9835 142.279 26.4478 141.525 25.8928 140.787L25.0673 139.674C24.7884 139.306 24.5168 138.932 24.2698 138.541L22.7431 136.228C22.4909 135.841 22.2301 135.46 21.9848 135.068L21.2863 133.871C17.5021 127.515 14.5635 120.692 12.5447 113.575C10.5729 106.471 9.43199 99.1613 9.14481 91.7936C8.97648 86.8905 9.15248 81.9816 9.67151 77.1031C10.2424 72.2319 11.1406 67.4046 12.3601 62.6541C14.8867 53.1843 18.6132 44.0049 23.9032 35.6804C26.5482 31.5046 29.6308 27.6225 33.0986 24.1001C36.6046 20.6008 40.5033 17.5183 44.717 14.9141C48.9252 12.3363 53.3737 10.1731 57.9999 8.45493L58.8622 8.12521L59.7359 7.82874L61.4834 7.23607C62.6518 6.85326 63.8368 6.52418 65.0133 6.16731C66.204 5.86573 67.3884 5.5349 68.585 5.25853L70.383 4.85884L71.2824 4.65924L72.1871 4.48978C81.8474 2.59613 91.7417 2.20106 101.522 3.31844C111.275 4.53012 120.93 7.38543 129.517 12.3896C138.148 17.4305 145.282 24.6769 150.188 33.3852C152.629 37.6796 154.645 42.2019 156.208 46.8877C157.764 51.5397 159.015 56.2886 159.951 61.1039C160.905 65.9008 161.607 70.7311 162.159 75.5676C162.709 80.404 163.111 85.2695 163.263 90.157C163.564 99.9144 162.885 109.84 160.207 119.383C157.574 128.992 152.726 137.85 146.052 145.247C139.466 152.651 131.526 158.729 122.661 163.156C105.031 172.02 84.2767 174.582 65.0549 169.881L63.2582 169.428L61.4775 168.914C60.2851 168.589 59.1223 168.166 57.9464 167.786C55.6211 166.949 53.3121 166.054 51.0779 164.996C46.5909 162.92 42.3112 160.423 38.2965 157.538C34.2835 154.661 30.5322 151.435 27.0863 147.898C23.6508 144.356 20.5213 140.529 17.7315 136.458C10.8177 126.4 6.20987 114.939 4.23693 102.894C2.39493 90.8124 3.35212 78.4694 7.0347 66.8165C10.6603 55.1634 16.7475 44.4254 24.8839 35.3295C28.9475 30.7864 33.5127 26.7184 38.4924 23.2034C43.4997 19.7379 48.8659 16.822 54.498 14.5061C65.7458 9.93846 77.6584 7.22018 89.7743 6.4566C95.9057 6.09642 102.057 6.65034 108.025 8.10018C113.987 9.62745 119.67 12.086 124.866 15.3851C130.035 18.6678 134.739 22.6321 138.85 27.171C142.956 31.6899 146.498 36.6913 149.397 42.0653C152.312 47.429 154.544 53.1362 156.041 59.054C157.558 64.9403 158.47 70.966 158.765 77.0375C159.378 89.164 157.717 101.295 154.538 112.923C152.936 118.736 150.97 124.443 148.653 130.01C146.363 135.597 143.678 141.015 140.62 146.221C137.549 151.459 133.967 156.38 129.925 160.911C125.852 165.461 121.203 169.46 116.095 172.806C110.969 176.177 105.346 178.722 99.4309 180.35C93.4911 181.908 87.3314 182.455 81.2099 181.969C75.1543 181.476 69.176 180.285 63.3941 178.419C60.5117 177.511 57.6744 176.482 54.8821 175.334C52.0939 174.177 49.359 172.898 46.6773 171.498C41.3043 168.701 36.2512 165.328 31.6069 161.439C29.2968 159.474 27.1111 157.367 25.0622 155.131C24.5629 154.56 24.0304 154.018 23.5587 153.424L22.1304 151.651L21.4168 150.765L21.0601 150.322L20.7329 149.857L19.427 147.994C12.5405 137.987 8.47574 126.239 6.98723 114.288C5.49364 102.29 6.47884 90.1136 9.88182 78.512C10.09 77.6274 10.4108 76.7761 10.6871 75.9114L11.537 73.3231C12.1585 71.6171 12.8312 69.928 13.4918 68.2355L14.6045 65.7466L15.1611 64.5022C15.3416 64.0851 15.5332 63.6731 15.7468 63.2717L16.9851 60.8421L17.6044 59.6277C17.8114 59.2229 18.052 58.8365 18.2741 58.4403C21.8235 52.0932 26.0551 46.1525 30.8936 40.7236C35.7095 35.3095 41.1265 30.4616 47.0398 26.2736C52.9278 22.1482 59.2705 18.7134 65.943 16.0367C71.745 13.7063 77.7582 11.9406 83.8991 10.764C88.9383 9.79677 94.0476 9.24026 99.1768 9.09999C106.451 8.85913 113.728 9.49429 120.851 10.9918C121.337 11.093 121.798 11.1666 122.219 11.2748L123.394 11.5764L125.207 12.0534C125.727 12.173 126.239 12.3265 126.738 12.5131C126.847 12.6066 125.161 12.2655 121.825 11.5529C116.85 10.6424 111.816 10.0859 106.762 9.88765C103.058 9.7689 99.3497 9.85885 95.6557 10.1571C94.6398 10.2458 93.5989 10.317 92.5396 10.4298C91.4837 10.5726 90.4055 10.7185 89.3048 10.8674C88.7554 10.9481 88.1962 11.0021 87.6396 11.1066L85.9526 11.4206L84.2327 11.7403C83.6544 11.8483 83.0681 11.9467 82.4875 12.0978C70.19 14.7422 58.5498 19.8323 48.2589 27.0655C37.8503 34.4647 29.0279 43.8723 22.3114 54.734C14.6359 66.9922 9.9182 80.8683 8.53149 95.2646C7.2492 109.566 9.48204 124.275 15.6523 137.223C16.004 138.048 16.4409 138.829 16.8621 139.618L18.1314 141.983L19.5413 144.264L20.2456 145.405C20.4898 145.779 20.7595 146.136 21.0153 146.502L22.5685 148.686C23.0929 149.409 23.6878 150.077 24.2434 150.776C25.3574 152.172 26.5422 153.51 27.7932 154.785C32.8194 159.892 38.5488 164.256 44.808 167.745C51.0702 171.249 57.6964 174.058 64.5687 176.123C67.9921 177.155 71.4769 177.972 75.0027 178.568C78.5152 179.146 82.069 179.435 85.6287 179.434C89.1709 179.409 92.7012 179.023 96.1654 178.283C99.6213 177.511 102.989 176.387 106.215 174.927C112.687 171.97 118.61 167.936 123.732 162.997C126.306 160.536 128.703 157.898 130.907 155.101C133.108 152.291 135.145 149.354 137.005 146.307C140.717 140.174 143.885 133.728 146.472 127.042C149.117 120.376 151.251 113.519 152.855 106.529C154.427 99.5501 155.342 92.4392 155.589 85.2896L155.641 83.9523L155.634 82.6148L155.616 79.9402C155.621 79.0482 155.534 78.1603 155.498 77.2702C155.443 76.3812 155.416 75.49 155.339 74.603C155.04 71.0566 154.527 67.5316 153.802 64.0473C153.615 63.1787 153.443 62.3062 153.243 61.4408L152.549 58.8685C152.317 58.0113 152.099 57.1489 151.815 56.3111L151.411 55.0461L150.967 53.7941C149.778 50.4548 148.337 47.2109 146.655 44.0905C144.803 40.6248 142.667 37.3179 140.271 34.2036C137.871 31.066 135.204 28.1418 132.3 25.4639C129.396 22.7822 126.249 20.376 122.901 18.2764C119.559 16.1912 116.009 14.4602 112.308 13.1117C110.468 12.4414 108.591 11.874 106.688 11.4121C105.732 11.2073 104.785 10.9669 103.82 10.8165C103.339 10.7344 102.861 10.6397 102.379 10.5672L100.928 10.3665C97.0447 9.90937 93.1276 9.80488 89.2251 10.0543C85.3286 10.2989 81.4505 10.7802 77.6125 11.4957C73.7807 12.1965 70.0066 13.0534 66.3248 14.0986C60.4424 15.7435 54.735 17.9596 49.2839 20.7151C43.8522 23.4782 38.7772 26.8922 34.1706 30.8818C29.5654 34.8922 25.4387 39.421 21.8726 44.3782C20.0862 46.8569 18.4347 49.4301 16.9253 52.0866C15.4299 54.7531 14.0779 57.4976 12.8751 60.3083C11.6658 63.1176 10.6245 65.9962 9.75666 68.929C8.88239 71.8596 8.17095 74.8362 7.62557 77.8453C7.09861 80.8569 6.74674 83.8965 6.57171 86.9487C6.38542 89.9996 6.40291 93.0595 6.62406 96.108C7.05065 102.215 8.23496 108.245 10.1497 114.06C12.0507 119.887 14.612 125.478 17.7838 130.723C24.1235 141.263 32.7658 150.232 43.0633 156.959C48.1873 160.307 53.7122 162.996 59.5077 164.964C62.3995 165.957 65.3524 166.761 68.3479 167.373C71.3433 167.993 74.3715 168.442 77.4178 168.718C89.6632 169.76 101.987 168.053 113.488 163.723C119.217 161.575 124.676 158.767 129.756 155.356C132.287 153.649 134.709 151.787 137.008 149.779C139.318 147.784 141.497 145.643 143.534 143.37C146.563 140.005 149.234 136.333 151.501 132.414C153.733 128.476 155.524 124.305 156.842 119.975C159.502 111.294 160.393 102.101 160.298 92.9452C160.25 88.3605 159.961 83.7699 159.515 79.1879C159.064 74.6042 158.487 70.0286 157.716 65.4983C156.168 56.4509 153.835 47.502 149.92 39.2737C147.988 35.1659 145.599 31.2884 142.8 27.7145C139.988 24.1695 136.731 21.0024 133.108 18.2918L131.734 17.2969C131.284 16.954 130.817 16.6342 130.334 16.3387C129.37 15.7451 128.415 15.1362 127.444 14.553L124.441 12.9568C123.429 12.4456 122.378 12.0107 121.349 11.5331C117.16 9.75155 112.811 8.37127 108.361 7.41083C103.898 6.44391 99.3607 5.86206 94.7986 5.6717C90.2321 5.46236 85.6564 5.58629 81.1079 6.04251C72.0028 6.9365 63.0906 9.23262 54.6869 12.8495C47.2339 16.0719 40.4577 20.6749 34.7155 26.4158C29.0498 32.1987 24.5834 39.1175 21.1055 46.4767C20.2399 48.3197 19.4035 50.1827 18.6859 52.0915L17.5876 54.9463C17.2419 55.9051 16.938 56.8791 16.611 57.8449L16.128 59.2962C15.9694 59.7808 15.8459 60.276 15.703 60.7654L14.8722 63.7099C14.6245 64.6989 14.405 65.6951 14.1696 66.6874L13.8221 68.1772C13.7168 68.676 13.6333 69.1793 13.5376 69.6801L12.9801 72.6885L12.5583 75.7185L12.3489 77.234L12.2088 78.7571L11.9319 81.8039L11.798 84.86L11.7333 86.3881L11.7391 87.9173L11.7551 90.9756L11.9127 94.0295C11.9429 94.5383 11.9566 95.0482 11.9999 95.5558L12.1533 97.0768C12.2609 98.0901 12.3456 99.1065 12.4713 100.117L12.9284 103.14C13.0115 103.642 13.065 104.15 13.1722 104.648L13.4773 106.145C14.2634 110.143 15.3331 114.08 16.6782 117.927C17.4039 119.828 18.0674 121.756 18.9351 123.598L19.5509 124.994C19.7538 125.46 19.9566 125.927 20.1985 126.375L21.587 129.094C22.0252 130.013 22.5836 130.867 23.0836 131.754L23.8529 133.072L24.2372 133.732L24.6558 134.37L26.3383 136.918L26.759 137.556L27.2144 138.168L28.1248 139.395C32.9791 145.951 38.7895 151.741 45.3618 156.574C46.1735 157.187 47.0369 157.728 47.8715 158.31C48.7129 158.882 49.5451 159.468 50.4321 159.968L53.052 161.533C53.9369 162.033 54.8526 162.477 55.7513 162.953L57.105 163.655C57.5576 163.887 58.0313 164.074 58.4931 164.285L61.2812 165.521C62.2268 165.892 63.1852 166.231 64.1366 166.588L65.5661 167.117C66.0491 167.273 66.5386 167.41 67.0243 167.558L69.9444 168.43L72.9074 169.134C73.8997 169.346 74.9026 169.51 75.8997 169.702C76.3972 169.805 76.9017 169.863 77.4048 169.932L78.9144 170.134C82.9479 170.622 87.0176 170.739 91.0725 170.485C99.1623 169.969 107.203 167.949 114.369 164.171C116.16 163.234 117.894 162.191 119.561 161.048C121.24 159.918 122.846 158.683 124.368 157.349C125.904 156.027 127.35 154.602 128.754 153.134C130.131 151.641 131.482 150.118 132.731 148.509C137.783 142.11 141.868 134.943 145.446 127.564C149.047 120.197 151.948 112.506 154.108 104.595C156.254 96.6946 157.412 88.559 157.556 80.374C157.624 76.2931 157.377 72.213 156.817 68.1702C156.238 64.1326 155.357 60.1443 154.179 56.2393C152.983 52.3418 151.461 48.5518 149.629 44.9095L148.934 43.5493L148.587 42.8691L148.203 42.2094L146.663 39.573L144.984 37.0246C144.715 36.5922 144.4 36.1924 144.097 35.7838L143.186 34.5609L142.457 33.5868L141.674 32.658L140.111 30.8021L138.441 29.0502L137.607 28.1751L136.723 27.3535L134.952 25.7174C134.34 25.1988 133.708 24.7049 133.088 24.1977C132.467 23.6913 131.849 23.1829 131.191 22.7281L130.221 22.025L129.225 21.3604C123.923 17.8619 118.091 15.2426 111.954 13.6037C105.912 11.9872 99.6791 11.1954 93.4248 11.2495C84.2412 11.3149 75.1459 13.0478 66.5816 16.3638C65.1802 16.9074 63.7977 17.4883 62.448 18.1368L60.4148 19.0815C60.0732 19.2325 59.741 19.4015 59.4142 19.5812L58.4275 20.1053C53.2114 22.8486 48.273 26.0905 43.6817 29.7855C39.1964 33.3921 35.0098 37.3552 31.1628 41.6362C27.4073 45.7983 23.9518 50.2216 20.8225 54.8729C20.0982 55.9167 19.4793 56.9291 18.8706 57.8472C18.5696 58.3087 18.2803 58.7524 18.0028 59.1785L17.2439 60.4275C16.2733 62.0191 15.4637 63.3132 14.8833 64.3457C13.6965 66.3956 13.1245 67.2311 13.2162 66.8581C13.863 65.2201 14.6096 63.6233 15.4518 62.0766C16.2065 60.6966 17.0753 58.9779 18.2644 57.0405C19.4045 55.0735 20.8169 52.8622 22.5018 50.4067C23.1134 49.5488 23.726 48.6896 24.3396 47.829C24.9404 46.9586 25.6192 46.1439 26.2569 45.2966C27.5243 43.5942 28.9212 41.9868 30.2841 40.3431C30.9765 39.5306 31.7155 38.7565 32.4313 37.9603L33.5155 36.7735C33.8855 36.3854 34.2691 36.0099 34.6456 35.627C35.4041 34.8662 36.1633 34.1044 36.9233 33.3417C37.7149 32.6107 38.5073 31.8789 39.3006 31.1463C42.514 28.2229 45.9298 25.5299 49.5226 23.0876L50.8711 22.1587C51.3226 21.8517 51.7969 21.5787 52.2592 21.287L55.0565 19.5672C56.9861 18.5284 58.8787 17.4091 60.8864 16.504C68.8676 12.6149 77.466 10.1477 86.295 9.21343C95.1807 8.21722 104.174 8.87222 112.822 11.1454C120.006 13.0463 126.782 16.2472 132.814 20.5896C135.832 22.795 138.635 25.2802 141.186 28.0121L142.152 29.0283L143.056 30.0987C143.651 30.8191 144.281 31.513 144.845 32.2568L146.522 34.5034L146.939 35.0675L147.325 35.652L148.096 36.8216L148.868 37.992C149.131 38.3786 149.345 38.7941 149.586 39.194L150.993 41.6176C151.83 43.2858 152.736 44.9227 153.457 46.6458L154.026 47.9246L154.31 48.564L154.562 49.2168L155.568 51.8281C155.894 52.7018 156.16 53.5961 156.458 54.4793L156.894 55.8079L157.267 57.155C158.285 60.7384 159.046 64.3898 159.544 68.0815L159.884 70.8503C159.974 71.7755 160.028 72.7041 160.102 73.6301C160.134 74.0935 160.175 74.5568 160.199 75.02L160.239 76.4098C160.257 77.3362 160.309 78.2625 160.299 79.1882C160.313 79.2707 160.327 79.3492 160.345 79.4518Z" fill="#BE185D"/>
</svg>
