<svg width="228" height="230" viewBox="0 0 228 230" fill="none" xmlns="http://www.w3.org/2000/svg">
<path d="M140.51 82.3994C135.004 85.1552 129.616 88.1659 124.392 91.4649C123.019 92.3573 121.62 93.2185 120.264 94.1458C118.913 95.0796 117.567 96.0215 116.239 96.9794C109.229 102.201 102.563 107.877 96.2829 113.97C90.0311 120.071 84.1459 126.544 78.6588 133.352C71.9252 141.737 65.8316 150.624 60.4304 159.939C59.0465 162.244 57.8129 164.635 56.5074 166.984C55.8798 168.172 55.2791 169.375 54.6631 170.57L53.7443 172.364L52.8768 174.184L51.149 177.827L49.5233 181.517C48.9661 182.74 48.4687 183.989 47.9646 185.235C47.4682 186.484 46.9341 187.718 46.468 188.978C45.9042 190.499 45.287 192.007 44.644 193.503C44.0357 195.011 43.423 196.514 42.8022 197.999C42.3208 199.211 41.7176 200.37 41.0021 201.458C40.4835 202.233 39.8333 202.91 39.0815 203.458C37.1836 204.792 36.2553 202.615 37.2497 198.214C37.5586 196.823 38.0199 195.411 38.4809 193.986C38.7163 193.276 38.962 192.565 39.2135 191.861C39.4803 191.163 39.7624 190.474 40.0405 189.796C42.5742 183.535 45.3134 177.384 48.2578 171.345C51.1991 165.302 54.3455 159.366 57.697 153.536C58.6451 151.942 59.5783 150.291 60.5744 148.695C61.5936 147.114 62.6382 145.564 63.7276 144.125C67.2945 139.591 70.8083 135.022 74.4917 130.582C75.4091 129.47 76.3628 128.388 77.2961 127.29L78.7038 125.649L80.1575 124.05C81.1325 122.99 82.0881 121.912 83.0863 120.876L86.1122 117.802C92.1512 111.738 98.5217 106.02 105.194 100.673C117.137 91.2325 130.079 83.1523 143.783 76.5801C148.839 74.1162 154.168 72.2694 159.658 71.079C161.936 70.556 162.016 71.2465 159.665 72.5668L158.407 73.2631C157.984 73.4914 157.552 73.7005 157.121 73.9202C156.253 74.3411 155.404 74.8274 154.537 75.2808L151.933 76.6552C151.052 77.0856 150.182 77.548 149.304 77.9865C146.409 79.4096 143.42 80.8339 140.505 82.3248L140.51 82.3994Z" fill="#BE185D"/>
<path d="M26.4699 156.742C24.8786 155.299 23.3991 153.736 22.0442 152.065C20.7144 150.387 19.5159 148.606 18.4595 146.74C17.3657 144.752 16.4112 142.69 15.6028 140.567C13.7508 135.915 12.8316 130.939 12.8984 125.926C12.9457 120.876 14.0027 115.887 16.0062 111.259L16.0271 111.211C16.3018 110.585 16.7751 110.07 17.3725 109.746C17.9699 109.422 18.6573 109.307 19.3261 109.421C20.3739 109.601 21.4251 109.771 22.4507 110.047L23.2239 110.237L23.9837 110.471C24.4871 110.636 25.0028 110.768 25.4931 110.968C32.6258 113.537 38.6875 118.464 42.6929 124.948L43.0672 125.55L43.4071 126.173C43.6299 126.591 43.8656 127.001 44.0748 127.426C44.4725 128.285 44.8902 129.135 45.2127 130.023C45.5775 130.895 45.8452 131.799 46.1358 132.694C46.268 133.146 46.3765 133.604 46.4966 134.058L46.6709 134.741L46.8077 135.432C47.554 139.105 47.7067 142.875 47.2599 146.597C46.9673 148.83 46.3593 151.009 45.4546 153.068C45.1199 153.902 44.6336 154.666 44.0207 155.32C43.5676 155.789 43.0156 156.151 42.4054 156.376C42.2618 156.45 42.104 156.49 41.9432 156.495C41.7824 156.5 41.6224 156.469 41.4746 156.405C41.3268 156.341 41.1947 156.245 41.0875 156.124C40.9804 156.003 40.9009 155.86 40.8545 155.704C40.6048 155.051 40.6519 154.061 40.9443 152.795C41.3032 151.189 41.7755 149.487 42.1097 147.829C42.5062 145.919 42.6848 143.97 42.6421 142.019C42.6108 140.068 42.3534 138.127 41.8753 136.237C40.9546 132.485 39.1414 129.015 36.5927 126.129C35.1991 124.551 33.5233 123.183 32.0812 121.767C30.2515 119.97 28.1181 118.519 25.7817 117.48C23.4582 116.44 21.0009 115.735 18.4824 115.385L21.4455 113.746C20.8946 115.055 20.3494 116.368 19.9216 117.731C18.3667 122.41 18.1787 127.529 18.872 132.429C19.4878 136.836 21.0076 141.065 23.3345 144.846C25.7011 148.671 28.8124 151.972 32.48 154.549C33.9691 155.576 35.4151 156.573 36.8023 157.529C37.1469 157.792 37.5081 158.009 37.8534 158.262C38.2006 158.509 38.5315 158.796 38.8801 159.033C39.5751 159.509 40.2257 160.111 40.9184 160.571C41.5461 161.023 41.8072 161.414 41.67 161.735C41.5347 162.048 40.992 162.317 40.0247 162.426C39.6829 162.463 39.3344 162.503 38.9883 162.519C38.6549 162.5 38.3231 162.458 37.9949 162.396C37.3274 162.298 36.6668 162.157 36.0173 161.974C35.3601 161.8 34.7268 161.556 34.087 161.315C33.441 161.086 32.8236 160.793 32.2032 160.503C30.1733 159.46 28.2747 158.176 26.5477 156.678C26.522 156.699 26.4983 156.719 26.4699 156.742Z" fill="#BE185D"/>
<path d="M74.1465 98.221C75.881 94.949 76.9906 91.3774 77.4176 87.6921C77.67 85.6898 77.7034 83.6657 77.5173 81.6561C77.0433 77.2988 75.9507 73.0329 74.2732 68.9893C72.6025 64.9117 70.5032 61.0265 68.0112 57.4003L72.5328 57.1285C72.003 58.1145 71.4488 59.0864 70.9423 60.0787L69.4386 63.0532C69.0476 63.8331 68.6647 64.6094 68.2943 65.395C67.938 66.1828 67.5671 66.9669 67.2269 67.7572C66.5233 69.3325 65.8775 70.9188 65.2671 72.5103C64.6566 74.1018 64.1234 75.7076 63.6298 77.3173C63.1627 78.9316 62.7452 80.5518 62.4245 82.1811C62.102 83.791 61.8796 85.4196 61.7587 87.0575C61.7177 87.4634 61.6989 87.8702 61.6903 88.2774C61.6795 88.6843 61.6559 89.0911 61.6538 89.4975C61.6715 90.3097 61.6573 91.1234 61.7278 91.9299C61.7605 92.7404 61.8637 93.5402 61.9549 94.3408C61.9951 94.7421 62.0823 95.1338 62.1425 95.5305C62.2112 95.9255 62.2631 96.3241 62.3559 96.7116C62.6611 98.2676 63.0935 99.7954 63.6487 101.279C64.2832 103.061 65.0251 104.801 65.8703 106.491C66.2465 107.191 66.5211 107.941 66.6853 108.719C66.8288 109.373 66.8559 110.047 66.7655 110.71C66.6359 111.646 66.1328 112.222 65.3239 112.276C64.8331 112.287 64.3468 112.178 63.9072 111.958C63.6167 111.829 63.3444 111.663 63.0971 111.463C62.8032 111.236 62.524 110.991 62.261 110.729C60.829 109.197 59.6961 107.407 58.9216 105.452C57.188 101.128 56.2391 96.5235 56.1204 91.8599C56.0442 89.5734 56.123 87.2843 56.3561 85.0087C56.6039 82.752 56.981 80.5117 57.4854 78.299C57.9597 75.8514 58.7206 73.4692 59.7523 71.2027C61.1417 68.3903 62.5169 65.6183 63.9311 62.8895L68.0949 54.7377C68.2794 54.3769 68.5526 54.0697 68.8883 53.8457C69.224 53.6217 69.611 53.4882 70.0124 53.4581C70.4138 53.428 70.8161 53.5021 71.181 53.6736C71.5459 53.845 71.8611 54.108 72.0965 54.4373L72.1365 54.4947C72.536 55.0596 72.9253 55.6312 73.3045 56.2096C73.6743 56.7938 74.0273 57.3886 74.3706 57.988C77.172 62.9387 79.5556 68.1898 80.9262 73.7936C82.1861 78.8124 82.5436 84.0184 81.9819 89.1645C81.8307 90.4568 81.6112 91.7399 81.3243 93.0085C81.022 94.2749 80.6504 95.5234 80.2113 96.7483C79.3383 99.1986 78.1796 101.536 76.7597 103.71C75.6799 105.406 74.3173 106.901 72.732 108.128C71.9816 108.695 71.1817 109.192 70.3421 109.613C69.9381 109.815 69.5228 109.994 69.0982 110.147C68.6944 110.311 68.2816 110.451 67.8618 110.567C67.0962 110.773 66.6622 110.708 66.5322 110.391C66.4708 110.176 66.4809 109.946 66.5607 109.737C66.6084 109.581 66.6678 109.429 66.7385 109.283C66.8141 109.101 66.9178 108.934 67.0458 108.785C67.7989 107.877 68.4982 106.934 69.2116 106.023L69.7339 105.329L70.2264 104.61C70.5754 104.154 70.883 103.659 71.2216 103.199C72.3402 101.635 73.3427 99.9893 74.2211 98.276L74.1465 98.221Z" fill="#BE185D"/>
<path d="M126.752 63.903C127.909 62.6612 128.966 61.3287 129.914 59.9181C130.862 58.4944 131.677 56.9857 132.351 55.4111C132.517 54.9891 132.715 54.5751 132.861 54.1438L133.303 52.8485L133.648 51.5226C133.766 51.081 133.818 50.6242 133.896 50.1748C134.449 46.2717 134.233 42.2968 133.26 38.4781C132.304 34.6983 130.634 31.1402 128.341 27.9992L133.56 28.0166L129.943 33.0292C128.034 35.6839 126.099 38.3091 124.267 40.9968C122.473 43.7013 120.63 46.4313 119.106 49.0898C117.604 51.5782 116.508 54.2931 115.857 57.1314C115.367 59.9347 115.406 62.8064 115.973 65.5951C116.287 67.3671 116.526 69.2521 116.826 71.1427C116.978 71.8819 116.973 72.6452 116.812 73.3825C116.651 74.1198 116.338 74.8144 115.892 75.4209C114.721 76.9581 112.75 76.4805 111.549 74.0008C110.778 72.3284 110.237 70.5578 109.94 68.738C109.55 66.5937 109.312 64.4239 109.23 62.2453C109.157 59.9898 109.353 57.7337 109.813 55.5254C110.055 54.4294 110.358 53.348 110.72 52.2864C111.086 51.2394 111.5 50.2239 111.94 49.232C112.829 47.2551 113.835 45.3861 114.859 43.5815C115.992 41.5853 117.119 39.5713 118.542 37.9155C119.477 36.8476 120.349 35.7371 121.198 34.6102C122.05 33.4857 122.887 32.3515 123.709 31.2077C125.359 28.924 126.971 26.6178 128.631 24.3574L128.697 24.2666C128.917 23.967 129.193 23.714 129.51 23.5221C129.827 23.3302 130.178 23.2031 130.544 23.1481C130.909 23.0931 131.282 23.1113 131.64 23.2016C131.999 23.2919 132.336 23.4526 132.633 23.6745C132.891 23.8683 133.114 24.1044 133.295 24.3729C133.678 24.9479 134.065 25.5201 134.43 26.1045C134.769 26.7043 135.12 27.2974 135.432 27.9099C138.001 32.8426 139.438 38.2947 139.637 43.8632C139.747 48.8078 138.782 53.7166 136.809 58.2446C134.85 62.7085 131.99 66.7116 128.412 69.9989C125.589 72.5957 122.198 74.2778 118.878 74.3875C118.123 74.4269 117.702 74.2524 117.589 73.873C117.564 73.7682 117.555 73.6603 117.562 73.5528C117.575 73.4187 117.604 73.2866 117.647 73.1592C117.7 73.0009 117.766 72.8471 117.843 72.6992C117.925 72.5222 118.033 72.359 118.164 72.2151C118.361 72.013 118.555 71.8088 118.739 71.5841C118.935 71.3932 119.142 71.2134 119.357 71.0453C119.785 70.7145 120.182 70.3305 120.598 69.9815C121.019 69.6403 121.407 69.2495 121.813 68.8903C122.225 68.5392 122.6 68.1408 122.994 67.7728C124.262 66.5335 125.642 65.3515 126.817 63.9803L126.752 63.903Z" fill="#BE185D"/>
<path d="M175.244 73.4218C176.926 73.8866 178.636 74.237 180.364 74.4706C182.089 74.6845 183.828 74.7633 185.565 74.7063C187.408 74.6362 189.235 74.3321 191.003 73.8011C194.825 72.6086 198.4 70.7211 201.55 68.2318C204.673 65.771 207.358 62.7921 209.49 59.4228L210.589 63.9472L209.327 63.264C208.903 63.0432 208.468 62.842 208.039 62.6281C207.171 62.2248 206.294 61.8375 205.396 61.4995C199.659 59.3945 193.504 58.7161 187.452 59.5217C185.969 59.7246 184.502 60.0339 183.063 60.4473C181.612 60.8782 180.188 61.3933 178.797 61.9901C177.394 62.5957 176.025 63.2804 174.698 64.0408C173.364 64.797 172.071 65.6263 170.825 66.5248C169.309 67.585 167.713 68.577 166.195 69.6446C165.013 70.5421 163.53 70.9362 162.063 70.7421C161.649 70.7203 161.253 70.5624 160.935 70.2926C160.618 70.0228 160.397 69.6558 160.305 69.2474C160.135 68.4298 160.424 67.3062 161.316 66.1585C162.508 64.6765 163.919 63.3887 165.5 62.3405C169.034 59.9155 172.807 57.8664 176.759 56.2261C178.745 55.3903 180.786 54.6932 182.866 54.1398C184.965 53.5905 187.097 53.1775 189.248 52.9033C191.614 52.597 194.14 52.4105 196.44 52.8569C199.415 53.4161 202.353 54.1597 205.238 55.0833C208.122 56.0031 210.91 57.2048 213.563 58.6713L213.62 58.7035C213.937 58.8843 214.215 59.1264 214.44 59.4158C214.664 59.7053 214.829 60.0364 214.927 60.3904C215.024 60.7444 215.051 61.1142 215.007 61.4788C214.963 61.8434 214.848 62.1957 214.668 62.5154C214.631 62.5826 214.587 62.6522 214.545 62.715C214.159 63.2865 213.776 63.8611 213.375 64.4208C212.946 64.9595 212.532 65.5094 212.081 66.0257C208.491 70.2746 204.088 73.7486 199.136 76.2394C196.925 77.3103 194.616 78.1623 192.241 78.7835C189.861 79.4142 187.419 79.7784 184.959 79.8696C180.117 80.0101 175.288 79.2838 170.697 77.7245C168.935 77.1434 167.257 76.3276 165.709 75.299C164.286 74.314 163.032 73.1024 161.994 71.7116C161.063 70.5178 161.72 69.7892 163.324 70.1196C163.604 70.1853 163.886 70.2455 164.178 70.2898C164.464 70.3457 164.733 70.4289 165.009 70.4983C165.547 70.6662 166.135 70.7364 166.663 70.918C167.188 71.109 167.734 71.258 168.266 71.433C168.795 71.6155 169.34 71.7582 169.873 71.9213C171.634 72.4302 173.39 73.1131 175.207 73.5134L175.244 73.4218Z" fill="#BE185D"/>
<path d="M133.072 127.813C135.957 130.737 139.192 133.287 142.702 135.405C144.528 136.523 146.484 137.409 148.526 138.043C151.226 138.862 154.024 139.305 156.844 139.36C159.59 139.442 162.33 139.06 164.952 138.231L165.909 137.913C166.223 137.798 166.525 137.654 166.834 137.528C167.449 137.275 168.048 136.986 168.629 136.661C168.925 136.514 169.212 136.348 169.488 136.166L170.332 135.647C170.386 135.616 170.439 135.581 170.49 135.543C170.532 135.515 170.569 135.483 170.608 135.453C170.686 135.392 170.757 135.329 170.82 135.27C170.901 135.196 170.974 135.113 171.036 135.021C170.957 135.156 170.918 135.31 170.921 135.467C170.909 135.658 170.932 135.849 170.989 136.032C171.036 136.193 171.111 136.345 171.208 136.481C171.356 136.666 171.3 136.567 171.016 136.364L170.099 135.672L166.426 132.884C163.437 130.566 160.348 128.335 157.331 126.165C154.378 124.012 151.303 122.035 148.123 120.242C146.575 119.384 144.984 118.605 143.357 117.91C141.767 117.241 140.137 116.674 138.476 116.213C135.23 115.285 131.848 114.942 128.484 115.198C126.504 115.314 124.534 115.576 122.591 115.982C122.165 116.094 121.732 116.171 121.294 116.212C120.905 116.255 120.513 116.271 120.122 116.259C119.41 116.226 118.706 116.083 118.036 115.837C117.092 115.477 116.595 114.811 116.727 113.928C116.83 113.395 117.06 112.896 117.399 112.473C117.887 111.895 118.469 111.404 119.119 111.021C121.105 109.878 123.304 109.16 125.577 108.912C130.579 108.37 135.638 108.803 140.479 110.187C145.257 111.532 149.655 113.636 153.845 115.965C156.155 117.25 158.528 118.628 160.431 120.302C161.95 121.637 163.477 122.932 165.012 124.187C165.783 124.814 166.55 125.439 167.334 126.046L169.71 127.832L174.484 131.376C174.669 131.516 174.912 131.689 175.226 131.96C175.628 132.303 175.977 132.704 176.262 133.15C176.624 133.733 176.851 134.39 176.928 135.073C176.994 135.719 176.926 136.371 176.727 136.989C176.43 137.872 175.936 138.675 175.283 139.336C175.027 139.603 174.753 139.852 174.463 140.082C174.325 140.197 174.181 140.298 174.038 140.403C173.901 140.495 173.727 140.62 173.62 140.677C170.825 142.406 167.755 143.634 164.545 144.307C161.405 144.979 158.179 145.142 154.987 144.791C149.413 144.173 144.038 142.337 139.239 139.41C134.603 136.553 130.363 133.087 126.631 129.104C125.881 128.335 125.192 127.535 124.534 126.732C123.902 125.932 123.311 125.099 122.765 124.237C122.233 123.409 121.745 122.554 121.3 121.676C120.886 120.796 120.498 119.931 120.157 119.068C119.847 118.27 119.85 117.777 120.164 117.591C120.256 117.546 120.355 117.519 120.457 117.51C120.594 117.504 120.732 117.516 120.866 117.545C121.044 117.582 121.218 117.633 121.387 117.699C121.6 117.768 121.801 117.87 121.983 118.002C122.523 118.404 123.069 118.81 123.621 119.221C124.174 119.627 124.668 120.085 125.185 120.529C125.695 120.974 126.207 121.421 126.72 121.87C127.227 122.32 127.754 122.749 128.234 123.22C129.852 124.723 131.357 126.395 132.992 127.874C133.018 127.854 133.043 127.835 133.072 127.813Z" fill="#BE185D"/>
<path d="M90.0436 162.359C91.1471 163.489 92.3336 164.534 93.593 165.484C94.8636 166.431 96.2159 167.261 97.6338 167.964C99.1295 168.74 100.724 169.305 102.373 169.641C105.929 170.331 109.59 170.266 113.12 169.45C114.859 169.04 116.555 168.465 118.186 167.731C118.995 167.369 119.783 166.96 120.546 166.508C120.918 166.271 121.304 166.052 121.669 165.804L122.206 165.419C122.404 165.317 122.587 165.193 122.779 165.081L122.835 169.821C122.467 169.526 122.109 169.216 121.733 168.933L120.593 168.097L118.308 166.432C115.834 164.703 113.309 163.05 110.734 161.474C108.161 159.9 105.576 158.31 103.017 156.916C100.541 155.526 97.9384 154.378 95.2454 153.488C93.9617 153.086 92.6509 152.778 91.3233 152.567C90.0305 152.348 88.7204 152.25 87.4098 152.275C85.8603 152.267 84.3118 152.352 82.7722 152.528C82.1145 152.632 81.444 152.621 80.7898 152.497C80.4848 152.438 80.1857 152.352 79.896 152.239C79.6062 152.135 79.3252 152.007 79.0556 151.858C78.2558 151.418 77.8069 150.753 77.9023 149.948C77.9897 149.151 78.638 148.181 79.9187 147.494C81.5965 146.624 83.4454 146.143 85.3309 146.085C87.4044 145.987 89.4823 146.11 91.5304 146.45C92.5358 146.61 93.5314 146.827 94.5124 147.101C95.4942 147.362 96.4388 147.673 97.3791 148.002C101.016 149.367 104.54 151.021 107.917 152.948C109.778 153.885 111.55 154.991 113.212 156.251C117.263 159.599 121.669 162.41 126.041 165.294C126.376 165.516 126.655 165.815 126.853 166.167C127.051 166.518 127.163 166.912 127.181 167.317C127.198 167.721 127.12 168.123 126.952 168.491C126.785 168.859 126.533 169.181 126.218 169.431L126.091 169.53L125.319 170.136C125.05 170.321 124.787 170.518 124.511 170.691C123.95 171.024 123.399 171.374 122.823 171.675C118.25 174.131 113.144 175.401 107.963 175.371C103.388 175.309 98.8837 174.217 94.7795 172.176C90.7475 170.159 87.1563 167.348 84.2174 163.91C83.0804 162.605 82.1424 161.137 81.4342 159.554C81.0979 158.802 80.8472 158.015 80.6867 157.207C80.5215 156.436 80.4103 155.655 80.3538 154.868C80.312 154.16 80.4678 153.763 80.8144 153.656C80.9102 153.632 81.0089 153.624 81.1073 153.63C81.2304 153.642 81.3517 153.669 81.4687 153.709C81.6146 153.759 81.7563 153.821 81.8924 153.894C82.0567 153.968 82.2059 154.073 82.3325 154.202C83.0348 154.974 83.8241 155.691 84.5487 156.427C85.2086 157.206 85.8821 157.973 86.5685 158.715C87.6932 159.933 88.7423 161.27 89.9685 162.421L90.0436 162.359Z" fill="#BE185D"/>
</svg>
